# Blender v2.93.1 OBJ File: 'ring.blend'
# www.blender.org
mtllib shot_glass.mtl
o Cylinder.001_0
v -0.211299 -0.000000 -0.157553
v -0.297512 1.110236 -0.251460
v -0.013248 1.110236 -0.369208
v -0.007804 -0.000000 -0.241842
v 0.446801 1.120383 0.079039
v 0.446819 1.120372 0.079039
v 0.454151 1.110236 0.059887
v 0.336403 1.110236 -0.224378
v 0.317677 1.120372 -0.232734
v 0.317666 1.120383 -0.232723
v 0.317666 1.120383 0.390800
v 0.317677 1.120372 0.390811
v 0.336403 1.110236 0.382455
v 0.454151 1.110236 0.098190
v 0.005904 1.120383 0.519935
v 0.005904 1.120372 0.519954
v 0.025056 1.110236 0.527285
v 0.309320 1.110236 0.409537
v -0.305858 1.120383 0.390800
v -0.305869 1.120372 0.390811
v -0.297512 1.110236 0.409537
v -0.013248 1.110236 0.527285
v -0.434993 1.120383 0.079039
v -0.435011 1.120372 0.079039
v -0.442343 1.110236 0.098190
v -0.324595 1.110236 0.382455
v -0.305858 1.120383 -0.232723
v -0.305869 1.120372 -0.232734
v -0.324595 1.110236 -0.224378
v -0.442343 1.110236 0.059887
v 0.005904 1.120383 -0.361858
v 0.005904 1.120372 -0.361877
v -0.088951 0.066914 -0.015816
v 0.005904 0.066914 -0.055107
v 0.100759 0.066914 -0.015816
v 0.140050 0.066914 0.079039
v 0.100759 0.066914 0.173894
v 0.005904 0.066914 0.213185
v -0.088951 0.066914 0.173894
v -0.128242 0.066914 0.079039
v 0.278807 1.110236 -0.214726
v 0.205476 0.255802 -0.166934
v 0.251014 0.255802 -0.122617
v 0.299669 1.110236 -0.193865
v 0.425703 1.117763 0.079039
v 0.428230 1.119229 0.079039
v 0.304535 1.119229 -0.219593
v 0.302744 1.117763 -0.217801
v 0.406599 1.110236 0.064287
v 0.302744 1.117763 0.375879
v 0.304535 1.119229 0.377670
v 0.406599 1.110236 0.093790
v 0.299669 1.110236 0.351942
v 0.005904 1.117763 0.498837
v 0.005904 1.119229 0.501365
v 0.278807 1.110236 0.372803
v 0.020655 1.110236 0.479734
v -0.290936 1.117763 0.375879
v -0.292727 1.119229 0.377670
v -0.008847 1.110236 0.479734
v -0.266999 1.110236 0.372803
v -0.413895 1.117763 0.079039
v -0.416422 1.119229 0.079039
v -0.287861 1.110236 0.351942
v -0.394791 1.110236 0.093790
v -0.290936 1.117763 -0.217801
v -0.292727 1.119229 -0.219593
v -0.394791 1.110236 0.064287
v -0.287861 1.110236 -0.193865
v 0.036632 0.255802 -0.236875
v 0.020655 1.110236 -0.321657
v -0.008847 1.110236 -0.321657
v -0.026907 0.255802 -0.236009
v 0.005904 1.119229 -0.343288
v 0.005904 1.117763 -0.340760
v -0.266999 1.110236 -0.214726
v 0.251877 0.255802 0.278611
v 0.207560 0.255802 0.324149
v 0.038715 0.255802 0.394087
v -0.024824 0.255802 0.394953
v -0.193668 0.255802 0.325011
v -0.240072 0.255802 0.278611
v -0.310010 0.255802 0.109766
v -0.309144 0.255802 0.046228
v -0.239206 0.255802 -0.122617
v -0.195752 0.255802 -0.166072
v 0.320952 0.255802 0.046228
v 0.321818 0.255802 0.109766
v 0.005904 -0.000000 -0.232682
v 0.005904 -0.000000 -0.176637
v -0.174887 -0.000000 -0.101752
v -0.214515 -0.000000 -0.141380
v 0.226323 0.000000 0.299458
v 0.186695 0.000000 0.259830
v 0.261580 0.000000 0.079039
v 0.317625 0.000000 0.079039
v 0.326784 0.000000 0.092746
v 0.242495 0.000000 0.296242
v 0.005904 0.000000 0.390760
v 0.005904 0.000000 0.334715
v 0.223107 0.000000 0.315630
v 0.019612 0.000000 0.399919
v -0.214515 0.000000 0.299458
v -0.174887 0.000000 0.259830
v -0.007804 0.000000 0.399919
v -0.211299 0.000000 0.315630
v -0.305817 0.000000 0.079039
v -0.249772 0.000000 0.079039
v -0.230687 0.000000 0.296242
v -0.314976 0.000000 0.092746
v -0.314976 -0.000000 0.065331
v -0.230687 -0.000000 -0.138164
v 0.186695 -0.000000 -0.101752
v 0.226323 -0.000000 -0.141380
v 0.242495 -0.000000 -0.138164
v 0.326784 -0.000000 0.065331
v 0.309320 1.110236 -0.251460
v 0.025056 1.110236 -0.369208
v 0.019612 -0.000000 -0.241842
v 0.223107 -0.000000 -0.157553
v 0.005904 0.217517 -0.206296
v 0.207667 0.217517 -0.122724
v 0.291238 0.217517 0.079039
v 0.207667 0.217517 0.280802
v 0.005904 0.217517 0.364373
v -0.195859 0.217517 0.280802
v -0.279430 0.217517 0.079039
v -0.195859 0.217517 -0.122724
vn 0.3310 0.9436 0.0014
vn 0.6469 0.7626 0.0015
vn 0.9083 0.3601 -0.2128
vn 0.7928 0.3600 -0.4918
vn 0.4578 0.7625 -0.4572
vn 0.2342 0.9436 -0.2340
vn 0.2338 0.9436 0.2344
vn 0.4575 0.7630 0.4567
vn 0.7928 0.3600 0.4918
vn 0.9083 0.3600 0.2128
vn -0.0007 0.9438 0.3305
vn -0.0006 0.7620 0.6475
vn 0.2128 0.3601 0.9083
vn 0.4918 0.3600 0.7928
vn -0.2350 0.9434 0.2341
vn -0.4587 0.7620 0.4571
vn -0.4918 0.3600 0.7928
vn -0.2128 0.3600 0.9083
vn -0.3310 0.9436 -0.0014
vn -0.6469 0.7626 -0.0015
vn -0.9083 0.3601 0.2128
vn -0.7928 0.3600 0.4918
vn -0.2338 0.9436 -0.2344
vn -0.4575 0.7630 -0.4567
vn -0.7928 0.3600 -0.4918
vn -0.9083 0.3600 -0.2128
vn 0.0003 0.9446 -0.3281
vn -0.0002 0.7653 -0.6437
vn -0.2128 0.3601 -0.9083
vn -0.4918 0.3600 -0.7928
vn 0.2159 -0.9522 0.2159
vn -0.0000 -0.9522 0.3054
vn -0.2159 -0.9522 0.2159
vn -0.3054 -0.9522 -0.0000
vn -0.2159 -0.9522 -0.2159
vn 0.0000 -0.9522 -0.3054
vn 0.2159 -0.9522 -0.2159
vn 0.3054 -0.9522 0.0000
vn -0.4748 0.8801 0.0000
vn -0.2354 0.9719 -0.0000
vn -0.1663 0.9720 0.1663
vn -0.3357 0.8801 0.3357
vn -0.6946 0.5775 0.4290
vn -0.7938 0.5770 0.1925
vn -0.3357 0.8802 -0.3353
vn -0.1663 0.9720 -0.1663
vn -0.7945 0.5775 -0.1878
vn -0.6973 0.5770 -0.4252
vn -0.0001 0.8802 -0.4747
vn 0.0000 0.9719 -0.2354
vn -0.4290 0.5775 -0.6946
vn -0.1925 0.5770 -0.7938
vn 0.3357 0.8801 -0.3357
vn 0.1663 0.9720 -0.1663
vn 0.1878 0.5775 -0.7945
vn 0.4271 0.5773 -0.6959
vn 0.4748 0.8801 -0.0000
vn 0.2354 0.9719 0.0000
vn 0.6959 0.5773 -0.4271
vn 0.7945 0.5775 -0.1878
vn 0.3357 0.8802 0.3353
vn 0.1663 0.9720 0.1663
vn 0.7938 0.5770 0.1925
vn 0.6961 0.5771 0.4271
vn -0.0000 0.9719 0.2354
vn 0.0000 0.8801 0.4748
vn -0.1878 0.5775 0.7945
vn -0.4252 0.5770 0.6974
vn 0.4271 0.5771 0.6961
vn 0.1925 0.5770 0.7937
vn 0.0000 -1.0000 0.0000
vn -0.0000 -0.9820 0.1890
vn 0.1337 -0.9820 0.1337
vn -0.3918 -0.7066 -0.5892
vn -0.1396 -0.7066 -0.6937
vn -0.1337 -0.9820 -0.1337
vn -0.1890 -0.9820 -0.0000
vn 0.6937 -0.7066 0.1396
vn 0.5892 -0.7066 0.3918
vn 0.0000 -0.9820 -0.1890
vn 0.3918 -0.7066 0.5892
vn 0.1396 -0.7066 0.6937
vn 0.1337 -0.9820 -0.1337
vn -0.1396 -0.7066 0.6937
vn -0.3918 -0.7066 0.5892
vn 0.1890 -0.9820 0.0000
vn -0.5892 -0.7066 0.3918
vn -0.6937 -0.7066 0.1396
vn -0.6937 -0.7066 -0.1396
vn -0.5892 -0.7066 -0.3918
vn -0.1337 -0.9820 0.1337
vn 0.5892 -0.7066 -0.3918
vn 0.6937 -0.7066 -0.1396
vn 0.4918 0.3600 -0.7928
vn 0.2128 0.3600 -0.9083
vn 0.1396 -0.7066 -0.6937
vn 0.3918 -0.7066 -0.5892
vn 0.0005 0.8892 0.4575
vn -0.1938 0.4024 0.8947
vn 0.2038 0.4033 0.8921
vn -0.3232 0.8892 0.3239
vn -0.7696 0.4024 0.4957
vn -0.4866 0.4033 0.7750
vn -0.4575 0.8892 0.0005
vn -0.8947 0.4024 -0.1938
vn -0.8921 0.4033 0.2039
vn -0.3239 0.8892 -0.3232
vn -0.4956 0.4024 -0.7697
vn -0.7750 0.4033 -0.4866
vn -0.0005 0.8892 -0.4575
vn 0.1938 0.4024 -0.8947
vn -0.2038 0.4033 -0.8921
vn 0.3251 0.8881 -0.3251
vn 0.7730 0.4023 -0.4905
vn 0.4905 0.4023 -0.7730
vn 0.4575 0.8892 0.0005
vn 0.8921 0.4033 0.2038
vn 0.8947 0.4024 -0.1938
vn 0.3221 0.8902 0.3221
vn 0.4917 0.4034 0.7717
vn 0.7717 0.4034 0.4917
usemtl Glass_2
s 1
f 5//1 6//2 7//3
f 7//3 8//4 9//5
f 9//5 10//6 5//1
f 7//3 9//5 5//1
f 11//7 12//8 13//9
f 13//9 14//10 6//2
f 6//2 5//1 11//7
f 13//9 6//2 11//7
f 15//11 16//12 17//13
f 17//13 18//14 12//8
f 12//8 11//7 15//11
f 17//13 12//8 15//11
f 19//15 20//16 21//17
f 21//17 22//18 16//12
f 16//12 15//11 19//15
f 21//17 16//12 19//15
f 23//19 24//20 25//21
f 25//21 26//22 20//16
f 20//16 19//15 23//19
f 25//21 20//16 23//19
f 27//23 28//24 29//25
f 29//25 30//26 24//20
f 24//20 23//19 27//23
f 29//25 24//20 27//23
f 31//27 32//28 3//29
f 3//29 2//30 28//24
f 28//24 27//23 31//27
f 3//29 28//24 31//27
f 33//31 34//32 35//33
f 35//33 36//34 37//35
f 37//35 38//36 39//37
f 39//37 40//38 33//31
f 33//31 35//33 37//35
f 37//35 39//37 33//31
f 45//39 46//40 47//41
f 47//41 48//42 44//43
f 44//43 49//44 45//39
f 47//41 44//43 45//39
f 50//45 51//46 46//40
f 46//40 45//39 52//47
f 52//47 53//48 50//45
f 46//40 52//47 50//45
f 54//49 55//50 51//46
f 51//46 50//45 56//51
f 56//51 57//52 54//49
f 51//46 56//51 54//49
f 58//53 59//54 55//50
f 55//50 54//49 60//55
f 60//55 61//56 58//53
f 55//50 60//55 58//53
f 62//57 63//58 59//54
f 59//54 58//53 64//59
f 64//59 65//60 62//57
f 59//54 64//59 62//57
f 66//61 67//62 63//58
f 63//58 62//57 68//63
f 68//63 69//64 66//61
f 63//58 68//63 66//61
f 48//42 47//41 74//65
f 74//65 75//66 71//67
f 71//67 41//68 48//42
f 74//65 71//67 48//42
f 75//66 74//65 67//62
f 67//62 66//61 76//69
f 76//69 72//70 75//66
f 67//62 76//69 75//66
f 89//71 90//72 91//73
f 91//73 92//71 1//74
f 1//74 4//75 89//71
f 91//73 1//74 89//71
f 93//71 94//76 95//77
f 95//77 96//71 97//78
f 97//78 98//79 93//71
f 95//77 97//78 93//71
f 99//71 100//80 94//76
f 94//76 93//71 101//81
f 101//81 102//82 99//71
f 94//76 101//81 99//71
f 103//71 104//83 100//80
f 100//80 99//71 105//84
f 105//84 106//85 103//71
f 100//80 105//84 103//71
f 107//71 108//86 104//83
f 104//83 103//71 109//87
f 109//87 110//88 107//71
f 104//83 109//87 107//71
f 92//71 91//73 108//86
f 108//86 107//71 111//89
f 111//89 112//90 92//71
f 108//86 111//89 92//71
f 96//71 95//77 113//91
f 113//91 114//71 115//92
f 115//92 116//93 96//71
f 113//91 115//92 96//71
f 10//6 9//5 117//94
f 117//94 118//95 32//28
f 32//28 31//27 10//6
f 117//94 32//28 10//6
f 114//71 113//91 90//72
f 90//72 89//71 119//96
f 119//96 120//97 114//71
f 90//72 119//96 114//71
f 118//95 3//29 32//28
f 8//4 117//94 9//5
f 14//10 7//3 6//2
f 18//14 13//9 12//8
f 22//18 17//13 16//12
f 26//22 21//17 20//16
f 30//26 25//21 24//20
f 2//30 29//25 28//24
f 4//75 119//96 89//71
f 120//97 115//92 114//71
f 116//93 97//78 96//71
f 98//79 101//81 93//71
f 102//82 105//84 99//71
f 106//85 109//87 103//71
f 110//88 111//89 107//71
f 112//90 1//74 92//71
f 72//70 71//67 75//66
f 41//68 44//43 48//42
f 49//44 52//47 45//39
f 53//48 56//51 50//45
f 57//52 60//55 54//49
f 61//56 64//59 58//53
f 65//60 68//63 62//57
f 69//64 76//69 66//61
f 121//98 70//99 73//100
f 122//101 43//102 42//103
f 123//104 88//105 87//106
f 124//107 78//108 77//109
f 125//110 80//111 79//112
f 126//113 82//114 81//115
f 127//116 84//117 83//118
f 128//119 86//120 85//121
f 122//101 121//98 128//119
f 128//119 127//116 126//113
f 126//113 125//110 124//107
f 124//107 123//104 122//101
f 122//101 128//119 126//113
f 126//113 124//107 122//101
f 1//74 2//30 3//29
f 1//74 3//29 4//75
f 41//68 42//103 43//102
f 41//68 43//102 44//43
f 70//99 71//67 72//70
f 70//99 72//70 73//100
f 53//48 77//109 78//108
f 53//48 78//108 56//51
f 57//52 79//112 80//111
f 57//52 80//111 60//55
f 61//56 81//115 82//114
f 61//56 82//114 64//59
f 65//60 83//118 84//117
f 65//60 84//117 68//63
f 69//64 85//121 86//120
f 69//64 86//120 76//69
f 49//44 87//106 88//105
f 49//44 88//105 52//47
f 35//33 34//32 90//72
f 35//33 90//72 113//91
f 36//34 35//33 113//91
f 36//34 113//91 95//77
f 37//35 36//34 95//77
f 37//35 95//77 94//76
f 38//36 37//35 94//76
f 38//36 94//76 100//80
f 39//37 38//36 100//80
f 39//37 100//80 104//83
f 40//38 39//37 104//83
f 40//38 104//83 108//86
f 33//31 40//38 108//86
f 33//31 108//86 91//73
f 34//32 33//31 91//73
f 34//32 91//73 90//72
f 31//27 27//23 67//62
f 31//27 67//62 74//65
f 27//23 23//19 63//58
f 27//23 63//58 67//62
f 111//89 30//26 29//25
f 111//89 29//25 112//90
f 23//19 19//15 59//54
f 23//19 59//54 63//58
f 109//87 26//22 25//21
f 109//87 25//21 110//88
f 19//15 15//11 55//50
f 19//15 55//50 59//54
f 105//84 22//18 21//17
f 105//84 21//17 106//85
f 15//11 11//7 51//46
f 15//11 51//46 55//50
f 101//81 18//14 17//13
f 101//81 17//13 102//82
f 11//7 5//1 46//40
f 11//7 46//40 51//46
f 97//78 14//10 13//9
f 97//78 13//9 98//79
f 5//1 10//6 47//41
f 5//1 47//41 46//40
f 115//92 8//4 7//3
f 115//92 7//3 116//93
f 10//6 31//27 74//65
f 10//6 74//65 47//41
f 4//75 3//29 118//95
f 4//75 118//95 119//96
f 8//4 115//92 120//97
f 8//4 120//97 117//94
f 14//10 97//78 116//93
f 14//10 116//93 7//3
f 18//14 101//81 98//79
f 18//14 98//79 13//9
f 22//18 105//84 102//82
f 22//18 102//82 17//13
f 26//22 109//87 106//85
f 26//22 106//85 21//17
f 30//26 111//89 110//88
f 30//26 110//88 25//21
f 2//30 1//74 112//90
f 2//30 112//90 29//25
f 119//96 118//95 117//94
f 119//96 117//94 120//97
f 70//99 42//103 41//68
f 70//99 41//68 71//67
f 43//102 87//106 49//44
f 43//102 49//44 44//43
f 88//105 77//109 53//48
f 88//105 53//48 52//47
f 78//108 79//112 57//52
f 78//108 57//52 56//51
f 80//111 81//115 61//56
f 80//111 61//56 60//55
f 82//114 83//118 65//60
f 82//114 65//60 64//59
f 84//117 85//121 69//64
f 84//117 69//64 68//63
f 86//120 73//100 72//70
f 86//120 72//70 76//69
f 121//98 122//101 42//103
f 121//98 42//103 70//99
f 128//119 121//98 73//100
f 128//119 73//100 86//120
f 85//121 84//117 127//116
f 85//121 127//116 128//119
f 83//118 82//114 126//113
f 83//118 126//113 127//116
f 81//115 80//111 125//110
f 81//115 125//110 126//113
f 79//112 78//108 124//107
f 79//112 124//107 125//110
f 77//109 88//105 123//104
f 77//109 123//104 124//107
f 87//106 43//102 122//101
f 87//106 122//101 123//104
o Floor.001
v -10.633907 0.000000 10.633907
v 10.633907 0.000000 10.633907
v -10.633907 0.000000 -10.633907
v 10.633907 0.000000 -10.633907
vt 0.000000 0.000000
vt 1.000000 0.000000
vt 1.000000 1.000000
vt 0.000000 1.000000
vn 0.0000 1.0000 0.0000
usemtl None
s off
f 129/1/122 130/2/122 132/3/122 131/4/122
o light
v 0.085077 1.522326 -1.923775
v -0.062597 1.522863 -1.923889
v 0.085427 1.637901 -1.831849
v -0.062247 1.638438 -1.831963
vt 0.000000 0.000000
vt 0.000000 1.000000
vt 1.000000 1.000000
vt 1.000000 0.000000
vn -0.0029 -0.6225 0.7826
usemtl Light
s off
f 133/5/123 135/6/123 136/7/123 134/8/123
